<?xml version="1.0" encoding="UTF-8"?>
<svg xmlns="http://www.w3.org/2000/svg" version="1.1" width="500" height="500" style="background: transparent;">

<path d="M0 0 C13.3871153 -0.11605865 26.7741101 -0.20479943 40.16162682 -0.25906086 C46.37860309 -0.28510905 52.59523411 -0.32042071 58.81201172 -0.37719727 C64.81614176 -0.43168607 70.81994056 -0.46145646 76.82429886 -0.47438622 C79.11036007 -0.48359573 81.39640398 -0.50157975 83.68232346 -0.52865028 C86.89456532 -0.5651637 90.10545374 -0.56993589 93.31787109 -0.56762695 C94.25439514 -0.58560333 95.19091919 -0.60357971 96.15582275 -0.62210083 C104.80004245 -0.55525423 111.57661696 2.55216567 117.9375 8.375 C124.14834445 15.25966248 124.55960133 21.21621874 124.34375 30.3359375 C123.62454686 38.00198913 120.56883996 42.96106283 115.26953125 48.39453125 C108.3348947 53.30010031 101.88938591 54.58336579 93.52319336 54.45410156 C92.51726135 54.45468567 91.51132935 54.45526978 90.47491455 54.45587158 C87.17952891 54.45310474 83.88506962 54.42207853 80.58984375 54.390625 C78.29342645 54.38315765 75.99700275 54.37746705 73.70057678 54.37347412 C67.67858046 54.35825686 61.65697467 54.31900844 55.63513184 54.2746582 C49.48141766 54.23362125 43.32763992 54.21544512 37.17382812 54.1953125 C25.11571455 54.15251064 13.05788985 54.08430654 1 54 C1.01665459 55.97744705 1.01665459 55.97744705 1.03364563 57.99484253 C1.13517051 70.44150996 1.21003713 82.88809296 1.25906086 95.3350811 C1.28511214 101.73365462 1.3204296 108.13189285 1.37719727 114.53027344 C1.43167481 120.70946659 1.46145414 126.88833799 1.47438622 133.06775284 C1.48359773 135.42079861 1.50158565 137.77382753 1.52865028 140.12673569 C1.56514847 143.43236575 1.56993649 146.73668011 1.56762695 150.04248047 C1.58560333 151.00705673 1.60357971 151.971633 1.62210083 152.96543884 C1.56335196 160.77826333 -0.60048486 167.37287755 -6.01926708 173.15446281 C-11.9720569 178.68770412 -17.56436041 181.5784883 -25.8125 181.5 C-26.51882568 181.49355469 -27.22515137 181.48710937 -27.95288086 181.48046875 C-36.37349506 181.1864002 -41.20068518 178.14376835 -46.875 172.1875 C-52.82101481 165.45155569 -53.44592793 157.90341068 -53.41992188 149.33642578 C-53.42839142 148.29793488 -53.43686096 147.25944397 -53.44558716 146.18948364 C-53.46888456 142.77463352 -53.469981 139.36023591 -53.46875 135.9453125 C-53.47585594 133.55931419 -53.48355557 131.17331758 -53.49182129 128.787323 C-53.50524948 123.79257453 -53.50684226 118.79798409 -53.50097656 113.80322266 C-53.49508228 107.41890268 -53.52566977 101.03534361 -53.56609344 94.65117073 C-53.5920074 89.7250463 -53.59484445 84.79910418 -53.59120178 79.87292099 C-53.59288955 77.51990726 -53.60249882 75.16688479 -53.62034607 72.81393814 C-53.64260793 69.51623592 -53.63279584 66.22006256 -53.61523438 62.92236328 C-53.62849762 61.96100464 -53.64176086 60.999646 -53.65542603 60.00915527 C-53.55954152 52.21683736 -51.36535284 45.66044343 -46.02291107 39.84955025 C-40.98257138 35.10362699 -36.07662827 32 -29 32 C-29.01160156 31.21753906 -29.02320313 30.43507812 -29.03515625 29.62890625 C-29.04417969 28.61699219 -29.05320313 27.60507813 -29.0625 26.5625 C-29.07410156 25.55316406 -29.08570313 24.54382813 -29.09765625 23.50390625 C-29 21 -29 21 -28 20 C-26.0509375 19.87625 -26.0509375 19.87625 -24.0625 19.75 C-15.97941334 18.90050363 -9.40789553 15.2853898 -4.25390625 9.0390625 C-2.49053969 6.17153184 -1.30574278 3.09763538 0 0 Z " fill="#DF1E5A" transform="translate(276,223)"/>
<path d="M0 0 C0.70632568 0.00644531 1.41265137 0.01289062 2.14038086 0.01953125 C10.5910042 0.31464779 15.40873202 3.35836078 21.0625 9.375 C26.88913275 16.10236824 27.63127596 22.50143088 27.59155273 31.06591797 C27.59841599 32.10586914 27.60527924 33.14582031 27.61235046 34.21728516 C27.63059616 37.64239296 27.62678367 41.06704169 27.62109375 44.4921875 C27.62565689 46.88201038 27.63096286 49.27183195 27.63697815 51.66165161 C27.64590512 56.66657853 27.64349104 61.67134585 27.63354492 66.67626953 C27.62206127 73.0774374 27.64226026 79.47805313 27.67146206 85.87914848 C27.6898444 90.81380694 27.68952739 95.74833362 27.68382454 100.68301773 C27.68367155 103.04242858 27.68969756 105.40184848 27.70211601 107.76122665 C27.71706045 111.06626344 27.70632221 114.37028701 27.68920898 117.67529297 C27.70371094 119.12508041 27.70371094 119.12508041 27.71850586 120.60415649 C27.62506025 129.26048285 24.93444255 136.51464661 19.01171875 142.9296875 C12.84924011 148.23443357 6.15636507 150.11440975 -1.8125 150.5 C-2.1425 154.13 -2.4725 157.76 -2.8125 161.5 C-5.3184375 162.304375 -5.3184375 162.304375 -7.875 163.125 C-16.24975604 166.23869135 -20.09611207 169.63632618 -24.01171875 177.71875 C-24.53983154 178.80091797 -25.06794434 179.88308594 -25.61206055 180.99804688 C-26.00820557 181.82369141 -26.40435059 182.64933594 -26.8125 183.5 C-40.10380632 183.5927682 -53.39503533 183.66379995 -66.68659973 183.70724869 C-72.85872857 183.72810418 -79.03063555 183.75638522 -85.20263672 183.80175781 C-91.16135839 183.84528731 -97.11986693 183.86915244 -103.07873535 183.87950897 C-105.34968418 183.88688751 -107.62062163 183.90129607 -109.89147949 183.92292023 C-113.07764701 183.95204786 -116.26293905 183.95595198 -119.44921875 183.95410156 C-120.38358261 183.96848267 -121.31794647 183.98286377 -122.28062439 183.99768066 C-130.20982383 183.9480029 -136.40982263 181.38826983 -142.4296875 176.125 C-147.81968337 169.79099355 -150.33300809 161.79200985 -150.203125 153.609375 C-149.31895576 146.57138782 -146.30409377 140.77153848 -141.0703125 136 C-136.01291238 132.24384076 -131.96925985 129.37191625 -125.54145813 129.37974548 C-124.23528534 129.37768349 -124.23528534 129.37768349 -122.90272522 129.37557983 C-121.95038498 129.37917511 -120.99804474 129.38277039 -120.0168457 129.38647461 C-119.01178986 129.38632858 -118.00673401 129.38618256 -116.97122192 129.3860321 C-113.64355321 129.38672971 -110.31594021 129.39451506 -106.98828125 129.40234375 C-104.6832838 129.40420847 -102.37828595 129.40563212 -100.07328796 129.40663147 C-94.00205392 129.41045241 -87.93084374 129.42027911 -81.85961914 129.43133545 C-75.66618167 129.44155865 -69.47274035 129.44613104 -63.27929688 129.45117188 C-51.12368742 129.46190173 -38.96809569 129.4789731 -26.8125 129.5 C-26.81710896 128.94746111 -26.82171793 128.39492222 -26.82646656 127.82563972 C-26.93717043 114.34472444 -27.01944529 100.86388942 -27.07156086 87.38261604 C-27.0976141 80.86297752 -27.13293526 74.34366797 -27.18969727 67.82421875 C-27.24416766 61.52831682 -27.27395266 55.23273062 -27.28688622 48.93661118 C-27.29609899 46.53890897 -27.3140894 44.14122335 -27.34115028 41.74365616 C-27.3776388 38.37576697 -27.38243686 35.00916947 -27.38012695 31.64111328 C-27.39810333 30.65783554 -27.41607971 29.6745578 -27.43460083 28.66148376 C-27.37648074 20.78997922 -25.25806731 14.17503421 -19.79323292 8.34625435 C-13.84152331 2.81179199 -8.24784698 -0.07848552 0 0 Z " fill="#2EB67D" transform="translate(249.8125,93.5)"/>
<path d="M0 0 C13.3871153 -0.11605865 26.7741101 -0.20479943 40.16162682 -0.25906086 C46.37860309 -0.28510905 52.59523411 -0.32042071 58.81201172 -0.37719727 C64.81614176 -0.43168607 70.81994056 -0.46145646 76.82429886 -0.47438622 C79.11036007 -0.48359573 81.39640398 -0.50157975 83.68232346 -0.52865028 C86.89456532 -0.5651637 90.10545374 -0.56993589 93.31787109 -0.56762695 C94.25439514 -0.58560333 95.19091919 -0.60357971 96.15582275 -0.62210083 C104.80004245 -0.55525423 111.57661696 2.55216567 117.9375 8.375 C124.14834445 15.25966248 124.55960133 21.21621874 124.34375 30.3359375 C123.62454686 38.00198913 120.56883996 42.96106283 115.26953125 48.39453125 C108.30242631 53.32306848 101.83528082 54.58265666 93.43139648 54.45410156 C92.41571091 54.45468567 91.40002533 54.45526978 90.3535614 54.45587158 C87.02571382 54.4531044 83.69878316 54.42207649 80.37109375 54.390625 C78.05225616 54.38315777 75.73341222 54.37746712 73.41456604 54.37347412 C67.33338776 54.3582559 61.25259613 54.31900662 55.17156982 54.2746582 C48.95753203 54.23362335 42.74343132 54.21544557 36.52929688 54.1953125 C24.3526954 54.15250894 12.17637995 54.08430364 0 54 C-0.19947739 53.37918045 -0.39895477 52.7583609 -0.60447693 52.11872864 C-0.86962601 51.30586899 -1.13477509 50.49300934 -1.40795898 49.65551758 C-1.66931137 48.84907303 -1.93066376 48.04262848 -2.19993591 47.21174622 C-4.0633258 42.06047696 -7.64716746 38.34558688 -12.36328125 35.6484375 C-17.85430713 33.27440143 -23.05451248 32.38357984 -29 32 C-29.02687279 30.18757948 -29.04633715 28.37504767 -29.0625 26.5625 C-29.07410156 25.55316406 -29.08570313 24.54382813 -29.09765625 23.50390625 C-29 21 -29 21 -28 20 C-26.0509375 19.87625 -26.0509375 19.87625 -24.0625 19.75 C-15.97941334 18.90050363 -9.40789553 15.2853898 -4.25390625 9.0390625 C-2.49053969 6.17153184 -1.30574278 3.09763538 0 0 Z " fill="#EBB22E" transform="translate(276,223)"/>
<path d="M0 0 C0.33 0 0.66 0 1 0 C1.14695312 0.64066406 1.29390625 1.28132812 1.4453125 1.94140625 C3.36082488 9.32823846 5.81416307 14.41739228 12.4375 18.50390625 C16.72919457 20.74555029 20.192806 22.0385612 25 23 C24.67 26.96 24.34 30.92 24 35 C22.329375 35.53625 20.65875 36.0725 18.9375 36.625 C10.56274396 39.73869135 6.71638793 43.13632618 2.80078125 51.21875 C2.27266846 52.30091797 1.74455566 53.38308594 1.20043945 54.49804688 C0.80429443 55.32369141 0.40814941 56.14933594 0 57 C-13.29130632 57.0927682 -26.58253533 57.16379995 -39.87409973 57.20724869 C-46.04622857 57.22810418 -52.21813555 57.25638522 -58.39013672 57.30175781 C-64.34885839 57.34528731 -70.30736693 57.36915244 -76.26623535 57.37950897 C-78.53718418 57.38688751 -80.80812163 57.40129607 -83.07897949 57.42292023 C-86.26514701 57.45204786 -89.45043905 57.45595198 -92.63671875 57.45410156 C-94.03826454 57.47567322 -94.03826454 57.47567322 -95.46812439 57.49768066 C-103.39732383 57.4480029 -109.59732263 54.88826983 -115.6171875 49.625 C-121.00718337 43.29099355 -123.52050809 35.29200985 -123.390625 27.109375 C-122.50645576 20.07138782 -119.49159377 14.27153848 -114.2578125 9.5 C-109.20041238 5.74384076 -105.15675985 2.87191625 -98.72895813 2.87974548 C-97.42278534 2.87768349 -97.42278534 2.87768349 -96.09022522 2.87557983 C-95.13788498 2.87917511 -94.18554474 2.88277039 -93.2043457 2.88647461 C-92.19928986 2.88632858 -91.19423401 2.88618256 -90.15872192 2.8860321 C-86.83105321 2.88672971 -83.50344021 2.89451506 -80.17578125 2.90234375 C-77.8707838 2.90420847 -75.56578595 2.90563212 -73.26078796 2.90663147 C-67.18955392 2.91045241 -61.11834374 2.92027911 -55.04711914 2.93133545 C-48.85368167 2.94155865 -42.66024035 2.94613104 -36.46679688 2.95117188 C-24.31118742 2.96190173 -12.15559569 2.9789731 0 3 C0 2.01 0 1.02 0 0 Z " fill="#36C5EF" transform="translate(223,220)"/>
<path d="M0 0 C2.19693735 0.04239574 4.39085129 0.04101188 6.58813477 0.03417969 C17.04394739 0.11226096 17.04394739 0.11226096 19.64526367 1.72167969 C22.12837014 5.85612405 21.20445524 11.36915838 21.17602539 16.04199219 C21.20599609 17.74355469 21.20599609 17.74355469 21.23657227 19.47949219 C21.23120554 28.83905351 19.90066192 37.46355181 13.36352539 44.54199219 C7.33140943 50.25963765 1.45652727 51.08059911 -6.57788086 50.89355469 C-13.5455405 50.22856066 -19.78444881 48.55457565 -25.26147461 44.10449219 C-25.92147461 43.25886719 -26.58147461 42.41324219 -27.26147461 41.54199219 C-27.98334961 40.73761719 -28.70522461 39.93324219 -29.44897461 39.10449219 C-33.49207522 33.38838443 -34.09477393 27.36270141 -33.26147461 20.54199219 C-31.02894057 13.02378295 -27.00136608 6.84998937 -20.10913086 2.90136719 C-13.59077876 -0.26556803 -7.07450698 -0.1443286 0 0 Z " fill="#E0215C" transform="translate(199.261474609375,278.4580078125)"/>
<path d="M0 0 C5.81273922 3.73609873 9.07545178 9.45198091 11 16 C11.88363507 22.84817177 10.30995166 28.93468965 7 35 C3.00837703 39.59483465 -1.16685348 43.1221138 -7 45 C-9.66789598 45.17645284 -12.22607719 45.25725539 -14.890625 45.23046875 C-15.63584412 45.23001053 -16.38106323 45.22955231 -17.14886475 45.2290802 C-18.71547041 45.22607121 -20.28207345 45.21822564 -21.84863281 45.20581055 C-24.25596601 45.18745451 -26.66291633 45.18530172 -29.0703125 45.18554688 C-30.59375335 45.18063494 -32.11719158 45.17480804 -33.640625 45.16796875 C-34.36348694 45.16685593 -35.08634888 45.1657431 -35.83111572 45.16459656 C-40.8839159 45.1160841 -40.8839159 45.1160841 -42 44 C-42.24258295 41.20280891 -42.4273369 38.42788531 -42.5625 35.625 C-42.60205811 34.80515625 -42.64161621 33.9853125 -42.68237305 33.140625 C-42.75808426 31.50306735 -42.83080749 29.86536855 -42.90039062 28.22753906 C-42.98266118 26.38774364 -43.08960616 24.54906947 -43.203125 22.7109375 C-43.50397854 15.25406761 -42.20465133 8.69125782 -37.19921875 2.92578125 C-25.77772014 -7.652966 -13.36311985 -5.95857611 0 0 Z " fill="#2FB67E" transform="translate(323,175)"/>
<path d="M0 0 C11.31906135 0.02551776 22.24916687 0.08449667 31.41796875 7.5625 C37.88958758 14.34338203 39.25181061 20.33284757 39.05859375 29.5390625 C38.45707951 36.62356353 34.7788426 41.64895009 29.8125 46.4375 C24.16348844 51.12497768 18.82702985 51.03114131 11.61328125 50.82421875 C3.46635427 49.99529196 -3.50163295 47.40072642 -9.1875 41.4375 C-14.85755616 33.31651634 -14.37021443 25.91234851 -14.375 16.3125 C-14.38724609 15.01183594 -14.39949219 13.71117187 -14.41210938 12.37109375 C-14.41404297 11.13230469 -14.41597656 9.89351563 -14.41796875 8.6171875 C-14.42207764 7.48007324 -14.42618652 6.34295898 -14.43041992 5.17138672 C-13.79130652 -2.02136889 -5.49899106 0.00875514 0 0 Z " fill="#ECB22F" transform="translate(294.1875,278.5625)"/>
<path d="M0 0 C5.39677196 3.49133274 8.71163267 8.88099176 10.71875 14.90234375 C10.95506727 19.5861918 10.90392748 24.27567525 10.90625 28.96484375 C10.91849609 30.27001953 10.93074219 31.57519531 10.94335938 32.91992188 C10.94529297 34.16322266 10.94722656 35.40652344 10.94921875 36.6875 C10.95332764 37.830979 10.95743652 38.97445801 10.96166992 40.15258789 C10.71875 42.90234375 10.71875 42.90234375 8.71875 44.90234375 C4.11341802 45.39812311 -0.52736963 45.27279672 -5.15625 45.27734375 C-6.42984375 45.30183594 -7.7034375 45.32632813 -9.015625 45.3515625 C-18.82431261 45.3816505 -28.6063456 44.46467243 -36.28125 37.77734375 C-40.66827369 32.76819934 -43.39922764 26.52318651 -43.71875 19.83984375 C-42.86963319 12.19779247 -40.89082994 6.38726635 -35.28125 0.90234375 C-23.7768463 -7.4051415 -12.6276406 -6.0759709 0 0 Z " fill="#37C5F0" transform="translate(209.28125,175.09765625)"/>
</svg>